<mxfile host="app.diagrams.net" agent="Mozilla/5.0 (Windows NT 10.0; Win64; x64) AppleWebKit/537.36 (KHTML, like Gecko) Chrome/131.0.0.0 Safari/537.36" version="25.0.3">
  <diagram name="Page-1" id="CdDTbXqfRQTLtjKM_PaX">
    <mxGraphModel dx="545" dy="322" grid="1" gridSize="10" guides="1" tooltips="1" connect="1" arrows="1" fold="1" page="1" pageScale="1" pageWidth="827" pageHeight="1169" math="0" shadow="0">
      <root>
        <mxCell id="0" />
        <mxCell id="1" parent="0" />
        <mxCell id="Z-SYojzFqSR8jtzvCgxn-4" style="edgeStyle=orthogonalEdgeStyle;rounded=0;orthogonalLoop=1;jettySize=auto;html=1;" parent="1" source="Z-SYojzFqSR8jtzvCgxn-1" target="Z-SYojzFqSR8jtzvCgxn-2" edge="1">
          <mxGeometry relative="1" as="geometry" />
        </mxCell>
        <mxCell id="Z-SYojzFqSR8jtzvCgxn-1" value="connect_to_server" style="rounded=1;whiteSpace=wrap;html=1;" parent="1" vertex="1">
          <mxGeometry x="70" y="310" width="120" height="60" as="geometry" />
        </mxCell>
        <mxCell id="Z-SYojzFqSR8jtzvCgxn-5" style="edgeStyle=orthogonalEdgeStyle;rounded=0;orthogonalLoop=1;jettySize=auto;html=1;entryX=0;entryY=0.5;entryDx=0;entryDy=0;" parent="1" source="Z-SYojzFqSR8jtzvCgxn-2" target="Z-SYojzFqSR8jtzvCgxn-3" edge="1">
          <mxGeometry relative="1" as="geometry" />
        </mxCell>
        <mxCell id="Z-SYojzFqSR8jtzvCgxn-2" value="handle_server_connection" style="rounded=1;whiteSpace=wrap;html=1;" parent="1" vertex="1">
          <mxGeometry x="280" y="310" width="180" height="60" as="geometry" />
        </mxCell>
        <mxCell id="Z-SYojzFqSR8jtzvCgxn-3" value="receive_chunk" style="rounded=1;whiteSpace=wrap;html=1;" parent="1" vertex="1">
          <mxGeometry x="540" y="310" width="120" height="60" as="geometry" />
        </mxCell>
        <mxCell id="Z-SYojzFqSR8jtzvCgxn-6" style="edgeStyle=orthogonalEdgeStyle;rounded=0;orthogonalLoop=1;jettySize=auto;html=1;" parent="1" source="Z-SYojzFqSR8jtzvCgxn-7" target="Z-SYojzFqSR8jtzvCgxn-9" edge="1">
          <mxGeometry relative="1" as="geometry" />
        </mxCell>
        <mxCell id="Z-SYojzFqSR8jtzvCgxn-7" value="create_server" style="rounded=1;whiteSpace=wrap;html=1;" parent="1" vertex="1">
          <mxGeometry x="70" y="430" width="120" height="60" as="geometry" />
        </mxCell>
        <mxCell id="Z-SYojzFqSR8jtzvCgxn-8" style="edgeStyle=orthogonalEdgeStyle;rounded=0;orthogonalLoop=1;jettySize=auto;html=1;entryX=0;entryY=0.5;entryDx=0;entryDy=0;" parent="1" source="Z-SYojzFqSR8jtzvCgxn-9" target="Z-SYojzFqSR8jtzvCgxn-10" edge="1">
          <mxGeometry relative="1" as="geometry" />
        </mxCell>
        <mxCell id="Z-SYojzFqSR8jtzvCgxn-9" value="handle_client_connection" style="rounded=1;whiteSpace=wrap;html=1;" parent="1" vertex="1">
          <mxGeometry x="280" y="430" width="180" height="60" as="geometry" />
        </mxCell>
        <mxCell id="Z-SYojzFqSR8jtzvCgxn-10" value="send_chunk" style="rounded=1;whiteSpace=wrap;html=1;" parent="1" vertex="1">
          <mxGeometry x="540" y="430" width="120" height="60" as="geometry" />
        </mxCell>
        <mxCell id="Z-SYojzFqSR8jtzvCgxn-11" value="&lt;b&gt;clientCoreUDP.py&lt;/b&gt;" style="text;html=1;align=center;verticalAlign=middle;whiteSpace=wrap;rounded=0;" parent="1" vertex="1">
          <mxGeometry x="85" y="270" width="90" height="30" as="geometry" />
        </mxCell>
        <mxCell id="Z-SYojzFqSR8jtzvCgxn-12" value="&lt;b&gt;serverCoreTCP.py&lt;/b&gt;" style="text;html=1;align=center;verticalAlign=middle;whiteSpace=wrap;rounded=0;" parent="1" vertex="1">
          <mxGeometry x="85" y="400" width="90" height="30" as="geometry" />
        </mxCell>
        <mxCell id="Z-SYojzFqSR8jtzvCgxn-13" value="Main Port Listening" style="rounded=1;whiteSpace=wrap;html=1;" parent="1" vertex="1">
          <mxGeometry x="65" y="870" width="120" height="60" as="geometry" />
        </mxCell>
        <mxCell id="Z-SYojzFqSR8jtzvCgxn-15" value="&lt;b&gt;How it works?&lt;/b&gt;" style="text;html=1;align=center;verticalAlign=middle;whiteSpace=wrap;rounded=0;" parent="1" vertex="1">
          <mxGeometry x="80" y="550" width="90" height="30" as="geometry" />
        </mxCell>
        <mxCell id="hCiq_PuQQrpELKO99VXv-2" value="HOST:PORT" style="text;html=1;align=center;verticalAlign=middle;whiteSpace=wrap;rounded=0;" vertex="1" parent="1">
          <mxGeometry x="55" y="930" width="130" height="30" as="geometry" />
        </mxCell>
        <mxCell id="hCiq_PuQQrpELKO99VXv-8" value="&lt;b&gt;Server&lt;/b&gt;" style="text;html=1;align=center;verticalAlign=middle;whiteSpace=wrap;rounded=0;" vertex="1" parent="1">
          <mxGeometry x="90" y="580" width="60" height="30" as="geometry" />
        </mxCell>
        <mxCell id="hCiq_PuQQrpELKO99VXv-9" value="&lt;b&gt;Client&lt;/b&gt;" style="text;html=1;align=center;verticalAlign=middle;whiteSpace=wrap;rounded=0;" vertex="1" parent="1">
          <mxGeometry x="510" y="580" width="60" height="30" as="geometry" />
        </mxCell>
        <mxCell id="hCiq_PuQQrpELKO99VXv-10" value="Request list of files" style="rounded=1;whiteSpace=wrap;html=1;" vertex="1" parent="1">
          <mxGeometry x="480" y="620" width="120" height="60" as="geometry" />
        </mxCell>
        <mxCell id="hCiq_PuQQrpELKO99VXv-11" value="" style="endArrow=classic;html=1;rounded=0;entryX=0.5;entryY=0;entryDx=0;entryDy=0;exitX=0;exitY=0.25;exitDx=0;exitDy=0;" edge="1" parent="1" source="hCiq_PuQQrpELKO99VXv-10" target="Z-SYojzFqSR8jtzvCgxn-13">
          <mxGeometry width="50" height="50" relative="1" as="geometry">
            <mxPoint x="480" y="620" as="sourcePoint" />
            <mxPoint x="260" y="680" as="targetPoint" />
          </mxGeometry>
        </mxCell>
        <mxCell id="hCiq_PuQQrpELKO99VXv-42" value="" style="endArrow=classic;html=1;rounded=0;exitX=0.567;exitY=-0.039;exitDx=0;exitDy=0;exitPerimeter=0;entryX=0;entryY=0.75;entryDx=0;entryDy=0;" edge="1" parent="1" source="Z-SYojzFqSR8jtzvCgxn-13" target="hCiq_PuQQrpELKO99VXv-10">
          <mxGeometry width="50" height="50" relative="1" as="geometry">
            <mxPoint x="490" y="630" as="sourcePoint" />
            <mxPoint x="540" y="800" as="targetPoint" />
          </mxGeometry>
        </mxCell>
        <mxCell id="hCiq_PuQQrpELKO99VXv-43" value="" style="shape=image;verticalLabelPosition=bottom;labelBackgroundColor=default;verticalAlign=top;aspect=fixed;imageAspect=0;image=data:image/png,iVBORw0KGgoAAAANSUhEUgAAAX0AAAAeCAYAAADAbs4RAAAAAXNSR0IArs4c6QAAAARnQU1BAACxjwv8YQUAAAAJcEhZcwAADsMAAA7DAcdvqGQAABNlSURBVHhe7Z0JdBRVusf/VdVLOp2EdGdrEkhICCEhhn0xCAkgmwx43EBFn/pGPbPo0+e8macz6og6juN4BsczjAvjPJ/OY3QQFZFVMCwJgZCEEEhIAtnIRhKy753urnpfdVWSTtOBAN1s1u+ce1Jddavurap7//e79363woweEyngMjCONoBhGfmXgoKCgsKNACv/VVBQUFD4AXDZlj7LUXuhGPoKCgoKNxSXLfoKCgoKCjceyvCOgoKCwg8IxdJXULhOiFzF4anZDDirgL1v2bDlnHzAU0SxeOHnLEJUQFWKFWu3AIoY3Pwolr6CwnVC2W4BdSoGPiNYJN7NwEve7zFKeeTXM9DrGcQkspjq8QQVrgcUS1/hGsHguXUqTNDSZqUNz7/Go2kRh3WrWIi7GjKtWLNegNkeV6b/uIDcT61YlyrvvygOaV2QIa6rBpIf4LBoKosgPVlKDMBbBLQ3CyjJ4bHxKwGNvByXWPQLNVbFyT+GQetxK377FwFdtD3vP1RYPZEB08XjXy/ZsKddiuMp1PM4vLWahS8jIH+jFX/eLR/wMBMeUeGZudSr6X/mDB55XYW5Jjpo4bH1NzZ80yLFVXAviqWvcM3gHYTSTp2AVpu02d3mJPjXCjWJ0ctqPJTEIsRHEnwRlvaPCCbreIkKb7zJYdlYaf+Vsm8rjyorbXizmLlIbK48i2UfjyPV4hZZ+zOoUbtKHnlWeveDrU0B9X0i3w009srbCm6HG+FvWCNvKyhcRRiMn80igoQUJPB79gvoDmAwfxYLHzJF2sp47M+TYvYzlsWyeAYq2qzLJbGqkHYPh9JCAZnpPNIOUigXEBPPQs8KKNhiw983y/sPCjhaBHSJoisTeT+HB8jy5mi7o9yGHRR38y4epZRnnZGF0ZsaAC+gt4JHZrl0Tm0pWa+ZfdeUgnY8izDqJaDGhnXv8UhxOJaRLaBBNPNFWgT4xXOICQAMFGrSBNQ45McTVPsxSIphoDFQQ1bDI7tGPuBBGkMY3OH0LiMTOcQH0Q4zPb+9Aios9qgKbkax9BV+ENSTEJcUy+Ec9TLk/b0ksv37KZwjK3MABrfFsnZhQpMNG/7EYys1DGK81K95vP2CBe9ssyH1Myve2zdguXZRj8XxmiXFQI/cgwH9rRx0TEA55cfR6t15iEebmEFqVObMlfZ5kuadPE62iVsM4uYyENthhZsXRfQVFC4A21dDOqm30CNvO1BAlv+newcaEXdgSeWRZbe2GcTcyiLS3up4EIuAHdk8xA6FfhyL5VHSboWbkyuayE14fhUWxqnRU5iFg51RuG2yEV7oRnXaQWzJNeGuJydgpI6BpaUKh99LQ9Ypp6qh8cPYlfGYOT0Mgf5aqBiyeHrNaDlbibwtOcjO7nUa95OxnxeLSfEmOs8LOm+1Q+slwNLdhIJ/7MH36c79YjXC7kzA5GkmhAbq4eWtsafZh83cg4o9W7H5i8GjyWGP34F75xrtXXzp+j3oaWtCxdFTSN9Ug44+K84ZymfcQ1MwfQbl01usuTzMTfU4ue0Q9mum4uf3R0CDehz+xW4capJO6UcfiMkPxyMhIQRGH+n+bOZONJeVI3PjcRSWukdmBt/bxehEwcfbsHO/O/rdAxN37XlWvPyugM4JLF5/hoOJMlP5vQWvfS5H7eOyJ3Kd6E/nYtdhsOplFRaF02YXjy9fs2Fno3Tk0nCYpOybtJYODIlhBYfXV9C9MgKyPrTiwyz5gEvOn6huOWbFb9cLmPNjDosTWIygYwyV06YqG3as57GvXo7Yh4HFr17nEEPxmrKteOUDAS7aOAcG0izZZsEmG4dHF7AIlie6zW0CTqbY8Ol2AR2uKnH/u6S8vEy9qFqHCXDq5nxC+9L6hrwU3IpbLH2v0BhMjddDEGdnOB3CZk/HfQ/FwCDY6JUyUPuPRuKqcdDJ8e1ogpH0ylLcuSgKJoMk+CKMRgtDRDTmPr0cd600nC9GxggseXMZnTcOEaG+0A8SfBFKT0cC2+1c0gJx65oVWHlPHGIiDPDRDxZ8EU6rAutCwH18vRzSEK+vg29IGOLvmI8fvz0Lsf5OF7Kjx6TnbseS5FGy4ItQITeaMOXhubgjzm9ooTVFY/mbizA/kc6VBV+E0+oRGBuPO55fgtvnayknNwfihK79bbUDvfYNAU32ycVrjYBMMlTsefJmcfdLHB5bwMDnKjx4ccjluL1luLwhF70vg1seVOHe6SzInpLKChU4YwSHVT9x0XtoJvE9Lth7LMY4FnN8pd3DQRPMYvUyFiaHiW6tH4Mpd6nw7Epp3P5C2GQbotssSOWglRoMRfA9xhVN5IbMiUdUEJUkthHZL+3Alt29CFsQihFqBnU7t2HD2mpoEqMQSrWE7WrA8b31skcGh7E/nYfkWG8qjGThlRUh/asspO8oRWU7D++RBvhpNfCP8IY54wzOOhSAsNWzMTdWT0JI51WW4HhqAQ5/mYecA6dxIlUMZahsakHN4Wa0Oxj6qmVTsfy2QHsB7G2knkRaIbI2HUfW/r7zTqOkpgXnchrRRFaKIx3ltSjOKJbi5TegtbEN3To9/H2p4fA2IiLajILURjg6HOjvuQ13zgmwpyd0nMWJ7Uex98uTKK4xQx02GmNC1eA4ju6/E1W7SlHVP5asx/TnkjFlpHimBQ0n8pG28Sgy9lSiVmBhCPWHTqtD8CgOtQdq0HKFk3zdZ+pRklWCPPkZXDiUobSgG71umljUhjLwtQhoqCBrtoAqfxsQOh6wtpBBTAJU4Lw46QomcgcRxGCBPGF8seu05JMQjmMRS+ewGgbhZDUvSmYw2g8oK3RhW7iEwSSyggdNWksHhobUt4nSTIxk4BXIwPskNQLN8jEX9E1Ut5tYjDNSDSMhVQey0NfZ8M3nPL49ysN3tOSBxI2gZ50h4ESHfLJMDTUyUxPFXgEDo7eAtNwLDVtR3kjog+hl+ISw8GricWCrDV9s41FCXYTR4Qx09Hz9g4DGNBeTsvTcRgdT3WoWqG4JKKPKw1O+TWq671oBR3KonspRFdyLe0S/sx4ndlShsW0EoleMhpEzo/ZwEYrPdMBv2gQpDjpQs5/iiC9fE4U5j0UjgApMV0EGNvw+HxVnutHZ1IXGk9XIz7EiLIkaD60vVPxp5FP3v48xi6ci2n69czj66gEczG4hEe6hc/sCXaOwZZDgi4xMisctETpqLDpx6l8p2L21AU0Njuf1oKW46TzBF7F1OMSrbkZNXi1Op5xGbUgoxo/WQU1dY/P+MlT394e9MPG+aYgyUqm31CPz3b3Yn9aKDnsadSjKNWPkHHpOJCLikMkg0U+Ix4KlJrtnSX3qbnz213LUnRWfTQfqj1Ugv8ELMVMCoPPxgnC2BCWVQ1fL4cB3mwfu7aLB7DbBF6k+ISD9IFVwUfDlfXmHpH3nCb7INRB9keJDPFpIeMeYSIBFG4dEcWQ0iwULWYSZeeSUyT2VIbkM0SdaqhlMSGKpnlDjqCMRzqIGUT7mTCc1CM0k2qNmyR4wZGj5VFrxxtsC8s7SsRrgCMdgifz8Wqtc3LeD55Cfr4DqC3oODYg+28Fjw6s2bC8iwaY8VFBD2RrGYkoYA0YroJHuN8/5hqlhz06X3rUo+CJtJQIO0e90RfA9St/IwdVlqhGBGnGjFcXflaPTucbU1qCmVpQBBn6mINijyjQ1tMsCEYTJv56LBSvHICL84kMddWfb5QqjR8y9SVj87+Mwbpw37Lo7XDReMEYbEDJODD5ozq1Diz2bvjBMJBOln2AEBYsNE1XSMxU4WugkzLWlKLc7Y5+PPsYAg3iqpQaFmxr7xbAP66E61HaJD8wH/h6f4VPoI+1jG371Sys+S+XtHj7iG2B1DKY/qMaLDzDi+i3308xjz7GBIZd5JMbDhyzoIyS4jnVrtw1PP2nBk08OPY/x7R6btNCMDJbkeWINvDjtFdTwOQ3HZJYJ1E8VYRA4wb6hcJ1wbUTfoBWHSIkRmPjsA3jufx9yCitwa7gkms5U/yMbWWVdJIZkdQWFY9KPbsM9r92HZ9ffh8d+NxtJSwOhd3GqdXsO9ue0iI4K4PxMiE+eieUv3o2nPlqJJ96ah8X3h8GfKvH5cAhZNh0r/7yS0rgXj760DKtfFMNyPPGzOAS4zKYKarIGRbo7xLw6Y0NDfV/jNRh/fy+poqnDkPSu83MRw1zE+V5KS6XgNqixTfnUht/8lwXrtpH4y+Zo+AIOj02Xtt1Nzvc8qkX7gCpM4o8uPj7eDxX0yhPy9qVwVEBun+dQIouoYSTYPyejcENwbUS/Hx7mzm50XSB0m22DC1RvPdJf3YK//+EA0g5XoK7ZDCtFsE8Aj4rEtAeW4HGXk6udyH93G/726xTs3l+Mqvpu9Iqqy2nkSdl5eGztfCSOd3wkHMKfWIRVq8ZjlL+GHpZTfnuG7PteOYIVPY5puQhm85VXNdF755nzGpahwl1YmuwRm/bGgkzY45tteOUT2SpmSCBnMYMdFdxFGY+M09IEZ2g8g8nD/T4O9UYub1WrgF0ZvN3jhg1lsXCyvFvhpuHaiP7ZTrTbzVwLqrZvxYdPfTVk2PB+jdxNdMSGzsJKZH6Qin8+twl/+cmX+OT9Q8gqbLMP4XDGaMx6MMilVWSuPYu8jzPwxX9/hb8+vhH/86dUpGXVi0YcGN1ITF/p4GVkHItpM6TJ2PbCTHz+9Od4zzF/H5xCoytznSqOII/oqL3ExsIZDoHBvqIzxXnU1XdKk2dMK/Lf2TzoWTgHZ9dShauL5YiAOrlwMvSSPdX/2rWPl4dcONy+1HPp9CF6DuXJnkMJC6/epxkUrg7XRvSPNaLePi6tRdSiaYgPvsJS1duDpoxSpK4tQIVs3ai12mHcnAWtJyqQuS4XRecklVZpHVxAw7yht7ccnag6VIazgxyOqRcw0wR/l8M7jWisl1oDr7HhSHCuNaYojBnlut9szW3EOXsHIgAJ/xaPMA/7B9Z9fRCfv7Ed/xxW2IuDRzzYu7kOMQZcQGQjGfjK719s5B1Lh1vpH3IBoqYMb8jlyhCQkist1tJGsViqLNa6qXCP9465Gaf3iJ45Boy3e+9Y0HDsNIrP8C7iiGe2ojUgBHFRPuC8DIhKHoPwSC+oNVYIWi/4BPhiVFIEYmM1qCscPPYdtnIapk82IGSMFrzAQR+gk+OTVb4qDtEBkmh3njmF41my1Uzob5+IpHkBCB6rh4pn4GUUz9MheGYkJt6bgIQIHTiq3dZzVcg+0ChN+noFIC7ZBF9WAy9dN+pPNqGNus1a00hMfHQW5iWo0GHWwltrRWt5NSqLe+xDTXSzaDYEImG8HzjOF6NnB0KvsaDHxiFo5ngkPTIBJpanhsmFy2ZrE2xRkYg2aaDyD0Fs8iiEhHNQkaqwPuKzMSByYTjGhPKoK+3uv7/L5Vp671wyDt47zWcE1NN7NBqHCNRda20fEOLgKAamAPmYicHUBPHbO+dfR0Xvof/bOzEsXnhRhZXzWMRGU3kXXR2pkBgo3rTFLFbfw2E0pSO6HRd9xyN9SC+gy/PecaSIYZCUQOXWj0K10/dxvKn9iWAQQPkKv0Vy2RQXF5wppfyOoPvyA3paqWxLsYdFSxFdM5mFSTuU59CA9465jsfeI/ZRrwHc5Wml4HbcsiIXbSXY9sJhnOqKwor1iYjWDKzcPD+OfDL0GP+zOVg4M3BoD5qGImz6TRYqHcYm+693AYSWEuxck4HCloFbG9bKU3MdDq9NwaGi/qYCk55fjPlx4noCZwS05uSgPHQyJoX09Q0cVqzaF5/Nw7QwF3k1V+PYcR0SZoj5cbEiV2PEjF8mITFGP2R+rcVZ+Oh3RZcsHjc0Dp9eviiDVr5e5qeVZ7B46wlOdGS5IE05Vrz5viB6PA7Bpa/IPR8Gj/9BhVup52Eps+GVN3mc60vvYs/lMle4TnlChZ/OYsBaeGxfY8PXg1bxDjxTx09D9+Ou1dMKbucixdmTdKLo/V34aG0GjhU0oKXTMshqFT+JIFpcmkGq5wedqtflBKr4+YauxnMoSj2Iz14aLPgi3l4seroGp2HHRtdrbcaZ7KP45sXvHQRfpBO573yPXeln0dLdl6YAS3szSlL2YeO6evHT367prceBV3dSA1CFhn7TUfwMQw0yPkpHBdlA9oakvQPNzkPzvU3I/P23+L/1x5Bf3oyOQfcrfgaiG71knQ457KDgHo7x2LDFhjzqDbSTovEORcpmFtBIFnfKxxasuaDguwsBKTnS6mD1mKsz5CJ6DlWJBpeaxeSll+A5pHBdo/wTlStE66tBb/sQ3wgaEj8kvrZMckt10ZtRUHCJmsHTf1Rhks8Q1rUH6P+nLsr3cG4arqGlf3NgvmTBp4Zibixiw6QuTHtVHeoUwVcYDhYBB8XPQtDmiDgWS4Kl3Z5k30HZc8iPRdJV8BxS8DyKpe8pxNW74TrROLPjPdaEYH8V9BFhiI4JkBaQCY3I/uN3OFAw1BiRgoIT4qRtKGO31tqqnb//7xnESXBfStDWKuCM07f/FW48FNH3FAmT8fB/xsP+mSBX2NpwanMqdn7b4nJlroKCgoInUETfY/R5Mkm/xIlps1WAraMVNafKkPt1GaqblEevoKBwdVFEX0FBQeEHA/D/iAvP7MEfTSAAAAAASUVORK5CYII=;rotation=-35;" vertex="1" parent="1">
          <mxGeometry x="210" y="730" width="181" height="14.25" as="geometry" />
        </mxCell>
        <mxCell id="hCiq_PuQQrpELKO99VXv-44" value="&lt;font style=&quot;font-size: 17px;&quot;&gt;LIST\r\nfile1\r\nfile2...&lt;/font&gt;" style="text;html=1;align=center;verticalAlign=middle;whiteSpace=wrap;rounded=0;rotation=-30;" vertex="1" parent="1">
          <mxGeometry x="240" y="750" width="210" height="30" as="geometry" />
        </mxCell>
        <mxCell id="hCiq_PuQQrpELKO99VXv-45" value="Request open more sockets" style="rounded=1;whiteSpace=wrap;html=1;" vertex="1" parent="1">
          <mxGeometry x="480" y="790" width="120" height="60" as="geometry" />
        </mxCell>
        <mxCell id="hCiq_PuQQrpELKO99VXv-47" value="" style="endArrow=classic;html=1;rounded=0;exitX=0;exitY=0.25;exitDx=0;exitDy=0;entryX=1;entryY=0.25;entryDx=0;entryDy=0;" edge="1" parent="1" source="hCiq_PuQQrpELKO99VXv-45" target="Z-SYojzFqSR8jtzvCgxn-13">
          <mxGeometry width="50" height="50" relative="1" as="geometry">
            <mxPoint x="380" y="930" as="sourcePoint" />
            <mxPoint x="340" y="810" as="targetPoint" />
          </mxGeometry>
        </mxCell>
        <mxCell id="hCiq_PuQQrpELKO99VXv-48" value="" style="endArrow=classic;html=1;rounded=0;exitX=1;exitY=0.25;exitDx=0;exitDy=0;entryX=0;entryY=0.75;entryDx=0;entryDy=0;" edge="1" parent="1" source="Z-SYojzFqSR8jtzvCgxn-13" target="hCiq_PuQQrpELKO99VXv-45">
          <mxGeometry width="50" height="50" relative="1" as="geometry">
            <mxPoint x="290" y="860" as="sourcePoint" />
            <mxPoint x="340" y="810" as="targetPoint" />
          </mxGeometry>
        </mxCell>
        <mxCell id="hCiq_PuQQrpELKO99VXv-49" value="" style="shape=image;verticalLabelPosition=bottom;labelBackgroundColor=default;verticalAlign=top;aspect=fixed;imageAspect=0;image=data:image/png,iVBORw0KGgoAAAANSUhEUgAAAWsAAAAlCAYAAACEY8jQAAAAAXNSR0IArs4c6QAAAARnQU1BAACxjwv8YQUAAAAJcEhZcwAADsMAAA7DAcdvqGQAABaeSURBVHhe7Z0LWBTX2cf/M7vsleWy3BaWO4Ig4g2jQcVLjNdEa5NoW9uvTdrkafo1TZv2adM26SVJb2nz5fI0bdq0/fKlbS5NTZpEjXcjoigCKioCKqIgtwWWXWDZXfYy3zmzs7AsC64KBM38nufo7OycnZkz5/zPe877noHJycnhEARmsxlxaMc8vUTYc+vxnxonlFo9VCqVsEdEZPKh0Wiwe/du4VPwVFZW4uGHHxY+idxssML/IiIiIiKTGFGsRURERG4CmIzMzKCmQXp7e2HuNIARPt+KcKQkonQJUCgUwh6RTwqTsQPdZjOk7K1b42wOF9KnZAqfgkcmk+GB++8XPgVPa2srPvjwQ+GTyM0Gk5SaFpRYi4hMJH1mI6aHW5AVdev6SP55yoFofYrwSURkdMRpEBEREZGbAFGsRURERG4CRLEWEfkESdskwXMvSvHCcxKsjxF2jifpLH74HDkfOef31uOW9kHdaohiLSLyCVK/h0OblEFoOIuCzzIYd9f2RTeqDAzUagZZBSzmiL70mwbRwSgygTB47GUppsnJZqMLjz/thnGFBC9vYkF3dZQ58fNXOdjJtr+DURIvQ+7KCCSmyaFUUBuDg8vWj+5zZpx+34r2Pv6wQTI1WHm/FpoA/kl3vxM2Yx9airtRddwFx5AWoEDh03GIlQkfR6UPF55tR2UX3fbNx6H7WDP2veeEm37kCcGc78UjLYbYsi0d2PGSBa8KDsal35Ji8wwGTJ8b/3rShb09QpZxImSpBM9uZqFhOFS948SLe4QvxplpX5bi0UIGElI+lX934uViBl9+RopCHfnS4ca2H7vwgclzrMhwRMtaZEJxD6qXhzYOZpdn09rtEWp/JDmhWPaNeGTmKAWhppBGr5AjckYsCr+jRXZy8AN6ViaFSheGjI163PmAElFS4Ysxg0FYpgpxQQk+cGCbG1ecZEPFYt6K8Z+acBxw41gT3SLW9W0saP8xETjJsx9qGXIweMXZCnT2C9siARHFWmRC6TILG16ISPnr9xBC5Jh3jxbhVPg4F3pqO1DxlyYceLMNF+v64SatnwnTIPuzasSMILrdFc048ArJw6cWVB4zo9tCZYOBKisas9ZIAzYE+wUDigfyBUpG1Prfj5dINZKzg1TBejdO1HuELG0+i/xxn5rgsOu4G3ZywpA0FvfkC7vHmXOkYxb65QFcQ9VbZBREsRaZ1GjXhEGnoaLnhrm0Fftes+BSnROdp2w48ZdWnKx28CIniQ/H1NsDi6Pb5kLnZZKHT/248J4Je15ph6GX5mQRMV2NBDoP4wdHhuamgXyBkgu2EXsaGaJny8i/wbHziBvd9Le0LBYVevaNJ1073TjbTbcY5BQyCOX3ikxmRLEWmcRIkJii8FTS3h5c2OX0s8w41H9ggtFBt6UIzwheHNFhRW213WPVh8sRHcbvHRNsl3vQQ0YMilQVktXCzqvgKHajvJluMci6nUXamE/N+OHgsKPCTQc2UGeyuDvds1tk8nLNDsa8xzfhzpwQ2GrKcdiSjoWztFDAiqZDh/FhpQ4bHpqGeCUDh+kKjv7xEMrP+ZkeMjpXmIt5c/WIjpBDSowhrt8OU0sjznx4AhUV/bylNAw+XzZm5upIPgWUqhCfnoaDw2pE9T/2Yl8JrX6+hEC/Pg+z8nVIiFZDoZLx5/TistvQsHcb3v/30NlS/dfW4N5CLZELCv19G2zdRjQcP4eSLc3o9R/PeSHXmfPF2Zh7G7lOFW1xZLhpNODs9iMoks3Bf38uhQiKAUe/uwdHjJ4sA6jJkPxLucjLi4M21HN/LrsFXfWXUPbOKdRcHHXCIGiG3tvVsKD6te3YWcQr4g0y6FDqOePET17iYJnG4plHJdCRi2nc58DTb3uO5B2M0RwefFGHGKLA9to27H7NhuHTmhLM+FYCMvWktLq6UPJCN1roQT4ORtPhRuzbGqDsCiPxmbvCiMw70PJuC0rKaM0bdBTaqlux53V7gHMGwjdfGxpUMchK4dC+owkHi+jvjuxg9BK5ToJn1rGQMxzK/+zEn8uFLwLi46wVMJ104qevclj0VQlW5rG0DwJD6qnxigs7XnXjgEE40Eski+8/I0EWOc5Y4cTP/sTBJnwVmMFz1m13YItLgq/cwSKWdEj0rQD2bg5n97vw94848IMWfwacyeRafuLCG61k13dDsCmHfEeGFa+TfYf8HcUiA1y3Za1IyMKcXDU46jWQKKFfMBf3fTELkZyLPAoGIRFJKNiUCaVwPI8sFot/thrrV6RDF+kRagojkyMyZQoKH7kbGzZGDhcRbQpW/XotyZeJlAQN1EOEmkLOpyTCaPWvIdG4/efrsPGeHNJwIhGqHirUFIlcCjaA8IZqBIuOh/6+Epo4PXLXLMNXfzcf2RF+P8SjxszHlmPVkkRBqCmkcmp1mP2lQqzJCRtZIHVTcPevV2BZAckrCDVFIlcjOjsXax5fheXL5ORKbg2oo5F/Wj1AP7/Bwcg7vXzIlEIhFJi1o38E0XTBws8/E2QsaDUIFonEW5ocnQ4fQzhcPt8HJyeBdroS6iAfGp2aOMV34Nc3NaHWMJj+BSnuncuC2EGeukLKT5siwaavB7DWu4honuL40YU2h8UijWd3MMhiWWxey0JHLtL7+hZ5GIPZG6T49kaGdICj4xL6fqudlD3dMBOhF4V6VCThEZE/F7aDIm5RLtJjSA1gO1Hx5A58uKcf+jsSEB7CoG3ndrzxfBNkBelICGXA9nXg1McGwcMvQcbDS7EkW0UqEbGo6mtR8l45SnZcRGOPG6r4SITJZYhIUcFeehktPg9Ov3kBCrPVRMBIvsY6nCquxtF3z+DEwfM4XUxTPRqNJjQf7eKHn16ka+fg7oXRfMXp7ySW+6EalG85hfIib77zqGs2of1EJ4zEKvCl91IrLpRe8BxX1QFzZzesSjUiNETwVVqkTLGjurhziICo71mI9Yui+PNxvS04/dFxfPzuWVxotiNEn4TUhBAiEBJy/xZc2XURV6yefFTk5z62BLPjaU4HOk5X4dA7x1G6txGtHIvIhAgo5UrEJkrQerAZJv/BwzVivWxAXXkdzghlMHqqx8VqK/pv8Jxe5AkMNGQI3tFArMdq0mi7gYSpgNNELGsiHNXtnuMcditis6UoyFeCVC3YGrtRf27oM/ISkq5Ekl5KOn03LEf70EbNwyg5MmYpISe93kh59QsikBRHngdnQ+tWko+vqFKkLAuFmlRxl7kPnZ3EMIlgoRqSSA3u4YgY8z8jMJjP2dGLc9sciFoYCk0Y+Z3KPhisEsQv0CCSKndvH6lbDlS0kXofFiHkJxDVNBLLuyCNgSKageosEW8+LDAwF2s4lJW40aNjkaklLYwIYEg0C3WbCx+87cbW425okljEEUGVhJPrKOVwulfILNBMOoc5BdQKZ6BVcThUyV/GCJBrIwJNHbmhcSwURjcObnPh39vdqCNlnpTMQEnKOyIG6DzEocF/MEbKKymW3H4XR+6fQz1pPG5y3boQct+tHI6dIO1UOFRkONcv1hYDTu+4gs7ucExZlwStxI7Wo7W4cLkXYfnTPMegF81F5Bj60GTpWHT/FD5Mqq+6FG/8qgoNl62wGEmDONuEqhNO6BcT0ZdrIHWfRxUZJntJXTkHU/jfa8fxpw7icIWJiKeN5PUm8hs1piFCTYlfnIvpKUoi8hac+9d+7NnWAWOHbz4bTBeMw4Sa4ur1Oa6pC81nWnF+/3m0xiVgahIREDKEtBfVo2lg3KjAjPvyka4ltdVhQNlLH6PokBm9/DnaUFtpR/wiUk4yaob4iXVeLu5YrYOa5WAo3oO3/nAJbS20bHphONmAqg4FsmZHQRmqANdSh7rGkZtTMLit9sF7u2qyj5lQU5pOcyg5TBomFWph35kjnn1eoabwYj1HhsXT6QjHga6yHjTyc7rDUU8LRTIVa3Kc8XBwYi3J0WDe8lDQSECuvZd0Sv3CwGxQdKVaNVJuC0PqsERGY+XCeQYYKtYXj/eDSVFDFyeHLMSCS9UMdFcTa4KpicG0xSxpJ6RTUxLxLOcDZgJiIULeRcQ2cb4EuXT1IzGQQhud+OXvOJxpId+R8jpGRg+rcj2WrvmKG8ca+KyDmDiE5UqQFQWEaTg0EZFtHvF5D4o12+vGG0+58FEtEVpyDQ1VHMx6FrP1DBg5h84icg0DxogA6ZArSjzPmgo1pbuOwxHyuUQU6qtCquoEMUeLaN77Y8aF3ZfgHbkO0NqM5lbafBmE6WKGOIqMHT1Cw47BrB8V4o6NqUhJvvqUQFtLj1DR1ci6dzFWPpCJzEwVeL0MFpkC2imRiMukKRRdlW0w8ZdJGt4MYhIMEIuYWNqhkMZ1uQHHa/wEtfUiLvHBtMNRZ0UikmZ1NKNmS+ew8CbnkTa09tECC0XEuHueJhE2txDaJYUi9loe2lBYhQRRKVJPmipH7ueisHKzFmF8UTrRUWGB0b/QbxgOF89a0M8R0U1Vep5vMHS5sffk4NTEUiKiwUMs1mNEKH3b1h4XHnnIgYceootQhH1+bN3rQid/QhZLlgrTJ1ehp8GNE37TFmX1HOkuKQyip/EbImPIxIl1pJzG/BPCMePbn8dj//dFv7QOtycHrtFN/6hAeX0fETEyPIxJxsy7FuKep+/Dt1+9D/f/YgEWr47mLRp/nB+dQNEJE79CTRKmQ+6Sebj7ic/im3/diAefXYqVn9MjQhmoakoQt3YuNr64kZzjXnzlybXY/ARNd+PBb+Qg8Fs7pQghQ0mKlVhOw9u+Cx0Gb6czlIgIhaeBhOix+CX/cqGpEDl8+NqnjE4X+vk+j1hro9RUFXn4fOnYXLD6D70JYfkJWPoNvSc9oEP27FCo+H7Whd7KDpQddNMR+jCog3HrDy/j3WHJu2rxKpQR65tYrkysGhlThX1BcGKfG020XycNpuCuq8//DkAqeuNpYftaOM6h0huJUsAiPYgTDvgcRCaMiRPrAdywW6zoGyVZ7a6hFaHfgJKnPsTffnMQh442oK3Lzs8X8o7JxDTkf34VvhbQ6WdB1Uvb8Zcf7ceeogu4YrCin6qlRCY4C5fi/ueXoWCqbzFIkPzgCmzaNBWJETJSQH7XaxtxjHjjcE7YfM8VINnpSoYbhEaDPDqsQxgpbcDqJb4jiAnkPCkPoXdTkmGZ72hrEAnCwgWxtjrRE8RY2t3vQO9lE8691Yzdb9mH+6XHjH40XaLRTXJEzfZ3io9CvRul5z2Ot4RcBrOCXSRz3asAOewqdfMRHGwCiztnCbtFJhUTJ9YtFvTwDc+BKx9tw5+/+d6I6Y1XmoXhlC8uWGoaUfanYrz52Bb8/uvv4vVXjqC8ppuf6pBop2D+F2ICWiH21hacea0U//7Be/jD197B//5PMQ6VG0BnFhhlPOZu9Ila0WYg/zaPk7CnpgxvP/I2/uh7fX86Rw2+AJDGJcx8hCioyPsjQXSshvw7nDaDxePUYcyoeuH9IWXhn/xDDG9pHERUzR4llevkiPUJUxsgXIbIGE9pO4wOGAOIFQ3d87WM//PTZux6xYzTlYEt6rGkuaQX3aSCqtJUCA12KoSw64BbmJqQYPlqavOOLzQS5YwQiZJ358QtQRcJnokT65OdMPDzrnKkr8hH7g3MQfL022AsvYji56vRIDTQELk8iBtywHy6AWUvV6K23aOuUrmP1aNXQc0rvgVXjtSjZUjAKLG65+kQEbDRdaLT4FFxRUYy8vxruy4dqYmBx5fOyk608wZ7FPL+Kxf60PFtKW3/OYy3f/kR3gwqfYzDx8ZxNDEqDlw6b/V0ZOEaTF0p9evsGCTdFY4o3uR2wlhtC/hukU+URhva20kdClUjSnsNz3VgagJInx3c1MSNwWE/6bzok5ans1gtLpKZdEycWKMBFaUG3mJmItKx4hfrsOnRmZhVGCU472IwdUMOFm5IGDbc1W/Mx7LN0zB/XSLi+WO9x+dh5RN5SBEyOOzCijQB9fIZWP4AyXdvKlKmevNFIm11DhY/Pg/TBYvMaXcM5jM7hLewqZFYkI5EoYHJdfGY/c07sGYmC1MPPYDGkquhHFCPbpw62erxaIckYOHPlmH5Bs/1pq2eifU/mIk4t2dp9DAaalB5xsJ/J0uZgXufXYP1D2cjN18rXHM8pm+ahnkrPBb/jeI0dsNwvgttQSUzesZvnuCqGIt60M53mBJELNCR56lGaoYUUTMUmP2QDnPzPI5mrr0btUfH9jqZEBYRXsdkwCTho0lGx4lzZy0BfRWjw+HdIjdoVQs4NaEC0qYwyCBJ452lIgURkerZl5EKBHTHjEL9FjeqaGgfw2D6igl4XavINXH9oXv2LpzfS8PyIjGVD91zoOPkeVy47A5wjCdv36k2mOOjkUKsV6lUjrD4WKTNmYK8xZkkZSAzOx766H40HGhGt0/tTl1XiAW365E0LRXT+WO9x8chNsJjFXOmOhS9fA4Gn3Cq2DvmYMnidCLUycgp9ObLRPb0eCTEKMCvibC34djfKlDvdaGb+yDNSUZqTAjk0QnIXZWHgg0zcNudaUgl191XRSx5hQ66UBm0OVmY+5kMRHTV8fftqOuDck4yEsIkYGQaxGV7rjd7eiy0bBvOVnGI1XtCCYfGWXPoOG6Aa2oC9MRMlMiU0CYmIGO+95rTkEEEO0FlQuXBTt76udXhQ/cUDkSxbjSREVDCdCXkEpY8ExUS8sOQmheKSC0pZ/IMub5e1L5txiV+GC8QRJx1YIIJ3fMm3xA+v9C9SteAQDs7SbuZr4bK27GPErrni/sSkLiQRaKKQUwUcOwQh4EAjKUS/OLrEixd5Imx5pEzyC5gsYjsWzSLgaE4QKzzaBCLxZHEIj+RgYqGApZxqLF4vvIwGLpnJ9f+8TE69vEhg8VaIUywjVjpw8IERW6ICbSsKRbUvrILf32+FCerO2Cy+Fi0BLr0u48okcxbqXnCoJT2B3Ts0WXqfZ3tqC0+jLeeLEWNaWiDVBGzx9Y39Bw8LvJ75i5crjiOD57YhyO1vkdYUPnCPuwqaYHJ6j0nB0dPF+r2H8A7L5PRwbAfFOg34OBTO7Gz6Ao66I3w0OXmzSj9awkZW9BYYEJPL7r8x+v9RpT9aiv++epJVF3qQu+Q+6XL3a3odzOe/J8yXNU92P+HVly8YIV14M1J9H3WdnSdMqD4uU5SZmNrVY8pZhuaG67dtqb3uP+Em1/hGZI6MVMTNBLlCh0eklHFrNXXEIkiMu6If3zgOpBrZOjvGeEdJiMShoKn13rCEztqseXH5Wi8Ls/9pwPxr5sLhDB45LdSzAwlmn/KiZ/+3se6HicG/hiC+L6OScUEW9a3BvZrFmoi8IXZyNZ7hKfnShvaRKEWCQYHh8NVnkUy4TksVsV6do8nBw4LkShhLBZPQCSKSHCIlvVYQlc7JnveZUFRZegQGyGFOkWPKVlRnoU7XCcqfrsbB6tHmksRoYiWtQ/UmZjA8JZVdxOHdv9l3ONAbDoDDTmhy8zhcjudkBH5pBHFeizJm4UvfScX/GtMAuHqxrn3i7Fzq+k6ogM+XYhiLSIyFHEaZCw53T3w9wQpvMPUYkVPWytqi4/gne9vw3ZRqEVERK4D0bIWmZSIlrWIyFBEy1pERETkJkAUaxEREZGbAHEaRGRSQqdBYiS9iBvn96R8kpQ0uqBLShU+iYiMjijWIpMSu90Gl+3WXo1BgzdDw71rxUVERkcUaxEREZFJD/D/YD608LxIyCgAAAAASUVORK5CYII=;rotation=-15;" vertex="1" parent="1">
          <mxGeometry x="270" y="820" width="166.78" height="17" as="geometry" />
        </mxCell>
        <mxCell id="hCiq_PuQQrpELKO99VXv-51" value="&lt;font style=&quot;font-size: 18px;&quot;&gt;OPEN\r\nport&lt;/font&gt;" style="text;html=1;align=center;verticalAlign=middle;whiteSpace=wrap;rounded=0;rotation=-10;" vertex="1" parent="1">
          <mxGeometry x="290.17" y="860" width="146.61" height="30" as="geometry" />
        </mxCell>
        <mxCell id="hCiq_PuQQrpELKO99VXv-52" value="Request data for specific chunk" style="rounded=1;whiteSpace=wrap;html=1;" vertex="1" parent="1">
          <mxGeometry x="480" y="950" width="120" height="60" as="geometry" />
        </mxCell>
        <mxCell id="hCiq_PuQQrpELKO99VXv-53" value="*Tất cả message đều được chuẩn hóa thành độ dài MESSAGE_SIZE (Mặc định 256) bằng cách điền thêm các ký tự space cho đủ 256 bytes" style="text;html=1;align=center;verticalAlign=middle;whiteSpace=wrap;rounded=0;" vertex="1" parent="1">
          <mxGeometry x="60" y="1060" width="280" height="30" as="geometry" />
        </mxCell>
        <mxCell id="hCiq_PuQQrpELKO99VXv-54" value="" style="shape=image;verticalLabelPosition=bottom;labelBackgroundColor=default;verticalAlign=top;aspect=fixed;imageAspect=0;image=data:image/png,iVBORw0KGgoAAAANSUhEUgAAAcIAAABECAYAAAAShjU0AAAAAXNSR0IArs4c6QAAAARnQU1BAACxjwv8YQUAAAAJcEhZcwAADsMAAA7DAcdvqGQAABk5SURBVHhe7d0JdFN1vgfwb9IkTdItbZo2TZd0AyqFllLWYgEBBVEQUdDRUfExb55zZo6OM44O6rwZGY/O+HTGmVHHGX2zuOCCC4vwVHahQCkUaGlL6b7QfUu3pGnavHuTm+SmTdu0tLWS3+ecHHLbnkuW/73f//9/////FURGx5hBCCGEeCgh9y8hhBDikSgICSGEeDQKQkIIIR6NgpAQQohHoyAkhBDi0SgICSGEeDQKQkIIIR6NgpAQQohHoyAkhBDi0SgICSGEeDQKQkIIIR6NgpAQQohHoyAkhBDi0SgICSGEeDQKQkIIIR6NgpAQQohHm1I35g1/5HZsXhTAbbHMaM08hH/9tZ7bZgVg4XOrkaYVc9ssIyr3fYVPd7Zz24zZqXjo5wkI4jZHQ5d1CP94vY7bciYMDkHS3QlITAhBoL83xJaqhBkmQw+625pQkVOGi59VotFg+fNhibRRWHjXNMTHBMHfVwKRgP2pGb16PTob6lF6rgTn99ejw2T585HFzMTmbSkIl3DbjL76fHz61Hlc5bbdI4DvnFikrIhGbHQg/Hxt75N5dcYedHW04eqlEmR/WoG69n7rL+x8kfLMGiyf5s1tj4KhBsdfPIKzFdz2RPGSIfK2mZi7OBxhSl/IJJYPHmaTEfrODtQXVaHgy8soLOmz/HywYKx4eTWSg7lNNxlKz+Hj7ZfRzG1bjLWctl7B549noZzbtJigMn+98/aLx6YbZmOxNhJqPx/ILAcic0wbu9HWXIWLhZn4R/FVtA4s6k4C8eDqLbhXK+O2R9KD0sx38ZOLDdy2O4RQKOKwJnY6UtRqRAT5QSqRQdqVg99/tA/fcH9FRm+KtwiZE3J4CNTcloVaBXUwPwQniwDK9YvxwAurcNOiSIQoHOHA/k4klcJfHYHZt6Tj/j+vwx3f18BPxP16EAmit6zE1l+nY0GSGkF+thBkCSCWyRGojUHqxlXY+pfVuPlWBYbcFY8iWYUgXgiyvIJU0CZwG24QhkVhxfMbsfWnizCPfW32sLcSSLzhqwzFjGVp+N6rG3DXg2rIud99Fwij47H2pXW4a2MCYsP87CHIEogkkCuUiJk/B2ufvRsPb5uF2NApfoiQsfNSYWPaFrx3z2bcN+cGxAQylSL7gcgc0xIfBIclYOXyB/HPjbfjNnczbrwJZUicvgZ/3vxTvLd5Ex6cl4zZEaEIlMstr1cg9IKUiuk1mfIfnzg4GBFaboMhiVNC6cNtTCLJvDlYsz6WCRrHiZNtHXV36dGt7wW/siiQ+CN21XLc+8Q0pp44mGL9IqxexgSI/dNnW5QG674MfcyWg0AWjFmbV+OeH4Zh+PiXQhMfBOux2ovODqPlGcSB0C5wr40gjJ6B9c/eiOQIqVPBYFtKltfWZYSJ/+KYAzTqpjTcssGX+8EUJ1dj6SOpmKEUM6c5Tr8JBst760Gv05cogmJGMvN5LMGcCO5n5PrhPR3b1j+ErbM08OEVdnNfD7q6u9BlMPKOaQEkQUnYujIdsyf5jCnyS8Jv7vwxXlo+F/EK5+PSztsf0fyONDJqU7xrlNWFwn/vw/4jvcxzASIfWYu7FikcJzKLkbpGO5D7+h4czLJsjIEMs55ag5tv4No+Jh0Kd5/A13vbYOu1FPopkHB3EuYvjrCEpdnQhAv/Poqjp3q4v+B4BWPp8zcjNcxapM3ddTj7zimcPN1tP/BEGjWSNs7G/LkhlrA0tVXg5Gsnca54mL4ZeThWv7AcMxXMc0MNMg8bkbg2GmxEueySG8hPgxXPpiM51Nb2NDO7KcGZ3fm4mNlhf59gQj7h/jlYvCQSCpEZ+tIL2P1SPmrtXcHOXaNu/d+TxHfNjbjvXi2s9ag+tOaexb7Xix3d2F4ShNyUgMW3JiCGDUuzEfUnM7DrrRp0c38yNOfu0vHuapTMS8GmR2YixPL1mNGRk4Edf6hwfl3jWuavb+EJm/BK+jT4W04kZhh15Th5/hu8xesC9fabicduWoNlaqn1fGPuwPnDb+OZEr3l986cu0YNV49h274MFFq2xkYRtgzbV6YhXs4/2zHHpa4GVyrLkFtbjvMtTShq72aqvuRaTHL9xn2GsisobGQzWo7QmcHcC/WHJszHUii7C/KQ32T54cQLDIU2wtYBaEbb+XP4kheCrP6ONuT/8xu8+/RhnL5UjjNvuwhBVrwGESG2j92IqiNZOMELQZappg7Zrx3A/z53CpeuFOHoKyOEIEOSEoFwNgQZvU1NKD3RgCbuLCkNVSFcZX3umhhxW1KRZA/BPjSfO4H3/jsT5/ghyDK24zLzPj94uwCVBdn47AV+CE5lUkTNUnEhyHyLLSU49ideCLL6jGg4mIPdT+7FroPlKDpy3M0QnGBeSiy4czoXgsxr76xC1o4BIUhG5erlT/Grk8Vo72fKetHXeGLnB3jpivN1wJ6OfLx08AjyurgfCHwRrYkcoWfGqlffgWuqBvktwK+cQpCpdDbk4r3P/4R7Pvo3fnnqG7xfXol8CsFxMWWDEOYu1FSxJVAAvyg1wtifaUKgUbHF0Iim0tbJKwAyMSRe3HPmf21v6HIKLr7+pjqcejkDJ8+6CEGWRAyxfV890JXzWrEDmCpKceCFM8itGj4E2c8odHYwU01g9TP7rENdTQNqGrlPyEeJiFnDHL7aeKTM8rfWehmGsov48q+Vww7SMZzOxqe/v4yGYf5mahHB29v+waOnrQPtQ732Pj3K38vAF+/UTYGwESDsgVSkhNtSsBulX2XjomeOaxlH/SjK+wS/2Pcxnjt2DkPWM7vLcanJ1gIUQOavQiy35cwX4f6Oi4h9vXrouOej54e75y9Egi0EzT24emkPHtuzFzsaKfgmwtQNQqagNjJNvk7mmVeAAmFapm04MwTBbMOsV4faXFs1bbIJIZHZWk7XitmX73gM/FFAG2ULsm7U57EdkTqUl+mYth3LB+EpYUybyDXlojCE2AZ59rXi8t7C71DAjY0XWyHhnk9lwvgbcONiFTdYimkVlOQjY++3VfZHT7FhGR751/14fEyPTbhrk7V6NzH6UVVbNnQIWuhQ3OmqK3TiiEIWYk2MH3c8m9FechDbTuaheqT6MBmzKRyETKujpBU6dsyHNBCaWT5QxissXVt9LY2ouGz5k8lRr4Ouy3YpVYTQRclYED/Gj665He32ZoYP4tbOwXSuS3PMYsKgCeZeT1cL6rgju/FCE9q4l+0TEYowl/ntg4jYQNhzsKkWV7KvxyOuC03Neua0YiUOn460zYqpfQB4BWL+A4mI4L4cc3cNst4tnBLXWz1HAOJ9xzBcVCCBVjUD9yal40dzuMfsJCzwGan65Y3lM6YhzNZ5YSjH/qyLmKyrQJ5qSp8HUFaLmib2pCyFMjoc0ZZWjxkdlXWotf7F5OhrREFek/1amUCuQdqTt+HOrdFQDdXMGkpNNa6UdtlPyCLVdKx9cTVu2Rg6zHSL4SkXqBHMTZsw1DfiaqP1ef+VOjbDLQQBKkTNtD53JkNgoGPOn76++To90Zpx9Zsq1Nu/RCm0t67GQ8/Mwcw4R5fp1CGAckMyUrTcF2s2oPJQNs5N9BxL4kwYgHA/20FuRpeuzq0BMIqEO/DXO+/Cg4vSsW4B91h8O35z/xP4dMM6fC9oiEAUhmF+qGMwYEd1HnZ3CKGOWILf3v5f+OjhX2L/D5/G/v98Cp/d9wP8MS0VM8erg8qDTdlRo9bRhoWQc6NE+/XdMErkkHnZRpEG8EbpXfuE+hFHN3r5I/WpVUifLrMXUpbZpEd9Th4yPytGafVQE7AHGDRC08psaEN5Vj5O73Q1UX0o/FGaJtQdPoAP3mmx/oqpQMx84lasnsX2Jw/8HYc/2hT9aDpxEO++zSXpmIx2Qv1kjm5kwmVjOu5eFwnngXh96LpahnN7B4yQHZXxHTXKTmXZ8OQ8aC1jtNgu0fP47MWC4busx7vME4hCVuHNdQugsdSVOnHx8FvYVuyqqzQS2zY9gHRX86VcMBsqsGf/h/hb04Bzhv8ivLphBaZbspeddP8xPvZegceSwyHjl1keU3sxdh38FP8YuC/itqndImROAPW5TWDjzUvGhiDzxKBDQ+m3cLm4rx3nXj6Cby7pYORVHQQiGdRz5+GO7Rvx0NNuti46anD0f44ztXsDEz0OAqkCMelpuPcPG/C9R2dA685k7sBgaNRc6PR1oOYCP+gMqClugfWwFUE5TYMQy3MehRxy+yR8E7p1QwzyuS6Y0fxZBj7fU44Wpy/RCz4R8Vj6o3X44ctLsfRm9xYwmDBMpSvlvkRE2QYqG+qQ/cH1f9126vHDnUmJXAgypaezEqeq3LheaO5BS30JMs8fx94z7OMkjhZVobnHcbQLpFrctmwVlgw8xGUKBNp7mQxoFSZiy2w2BK0r3VjmOPaYmJLsIPKPx/olyzBvip/NpzKvAEXgb7jn3zr/edORGGEtBabWWuQda0JnpxiaJVFQcuf63roynP68gambyRFzSzzUlpNFH3RFJSjI553EQzWYkxbMTTAfme3/G7aY9xlQe7IIBRV6eIcHIshfDKGtlsacTGXKEMQv0ULtp0Nlbuewo7vM3R2oOHoFxe1m+IYpoPAR2VuaAqGY+ZkGCeka+BnrUV5idCr4fJLUGUhbHGQZCGNuq8KZHTVo46WrwRyA6Wmh8GUOEi/vfuhyy1HDH87mp8QNS8OhsPTUuPgcGWxL/Qc/mY/FG5IGP9YEw+S0TwnClsYjWululBjRkFWI0hpuc8KZ0XW5Crmn6qEP8oMqRA6J40uESB4ATVIcEmYCLbkN0Lk9NYRfHpm6fE0ZzmexQ71GT7FuIW5ZooR17QYjqg5k4NBxx/XNIU1Emfdgiug1+FlqBNcS60X1pQP4c1W7U+XVTuwDJXNWqq3OwTtH9uKNvFwcq6nE2Tr2UY6M8hx8frkaiuBYTPOXWI51oVwBVVc+vm5yHG9R2nlYFxXIDeQyMw2AAEibL+DtLz/E9syT2JmTiZ0XT2F/eRei1dHQyKzp5+UTAEVbLg63Um1pLKZ8EOoNffBPjYY2iD2x9qM1Jwcns9nRJqMJQrb77RPseCMXp3e5fpwdxQnBWNeC0iOXkX1BB0GwDwJVcoht51KhNwLjtIgJ16Eoq32Eoc5m6MvqUXigAHnleohD/BGo8IYXty+BSI6QWVqEedeiMM/g4kQoRvSGZCRpvC0HVldRPjIydM5de21mqJbEQu3D/IVIBFNTOQqLeH/RJ4N2ue1aJ1P11VUPOoHzv5dBTB2oPDF0ELLdbzseP4LDLj5z62MyQ9DBzNSs686UIvvLCrT5SOAfooCvfdUgIaRKNaalStGWVYNmt8JwnIIwOAYrH06EWmp9LZapLH+rRqc7PeUTWOY9jUixEM+vWohIrkyYmDB640g2yoeqjfR3orCBCb2GBtQ5Lb/E09eGrDoz5k+LRbDl8BBD2tuAA8w5wHbmClDNwmp7EIohas3Cb788hgwDvwCYYdDX4ni9EIvitQhkW6wCb8h6a7Gnosl1UJNhfQca0x049/wn+OOW95nHB9d4/Wp8mSoqkfHKV3jrsX346lgVr7vNC8p5qVi+yt3rZGZ0XijCoe178LdnDuHY2QZ020ozO6hj1Xwsmuniq/IKhDbKNsxaj/rCRgw6Z/e1otIyH5MlQ+gMlfM0iu4e9PJyUezrY1mNxmOwCwS8cxI7Hv0E77+Xi9LmXnuFQ6SahqX/oWUibrLIkLglmWkxcIFsbMDFndQlOtlE8hvw1Ipl9nl87PW8fccOImM8EqajkGkhOmanimV+zmspO2HC9fJZ5A7x/5qaLyGz1lGVkfoqh5jjSEZCvcrjwLaqzPt/zMFVW9VO4IPI1IhRh4p1VZmDzEm5BDrbGVkSjLg0JbfBE6+GOog7aTIn0bhNG13MxdqMdXMdr8InSgOt04vSo5nX5JGFBkE1oFfz6ptfcBUR7vH0GZRfb8ua2FaV2XYImZXcOq1MFcMvLgrxw67KM36k6UlYmGhdOYntiqs9kY3T+d/t+v3Unkc4mEgxH79dtw5LrE02mHubkHli1+BBLWOmQyFvXqK3rwKh3PNBjC0oax6uzd6K/A7HgTjsvsiwKAjHkamgENl5ju4wuToIo7xTD4dpIR4uQF6lrWNVCF+NEgOjMHiuytotMgrsNIrIRP7X3oW62k5u4r3199FJHlwsjM0491WlY1UQn0CERHPPJ5JfBJZtjEMAV68x1RUhY0czdXNNGiEi427FG+tXITmAC0FjHU4cfh/bS4dfwMAneDa22uYKJiVj7rAdQd4IFDlqmsaudvD7uPrMZnuPxMiG3xdxHwXhuOqF3jheNcc+GI3DnQb9ETs9CAPuujQygS/CZjtHav2pWtgrvF6BSFg3w76upScytpvsFYPJIUHcA8mYEWhLwWbkfHgRVdQlOjm8VNi8dCv+siIFEdy1WVN7CXbvfxcvVoy8ik+PJBLLbHMFF6Vjg3q42mkQZgU5umRMRuel2K626BzL+kmCEKMcZuiTMATJyqH3RdxHQegGoZ8M8iHGijhhQiQq3HFFqbfLMOianUghg9SdkPELhNq+7hlTyDu7mbYbjyYU4aG2GGTnVn7s3H054LHjaBN3chciIFrtfF2isBQFpY6BRtKYZKz5UdSYJ/hPSV4S+LrVfBYgNDnI0aXda0B3B/d8gkjTkrAkVcEOVWL0ofF0No5fuD7agm27juFNF+XRvcdO57nB406E+Gm34s37tmJLgso6Stfci5ayY3juk4/w9wb3pmmZ9B3otPWmww/T42YN2ROkiJ6PVJWtHPaiuakGTmPF2mtQa+9U8sWMhHlD3vpJEZWCOcG2ffWgvr7SeV/EbRSEbvBfuQAPvnY3tvx6IdJuC0eovSA7iDQaLHriRsyLtK0Y0Y/2ygYMvP906L0r8cgbG3DfL+ZiwSoVFP4DvwIBpPExWPnLhZhhvyOVAY3FzU6hal93ldXVjOpLwx+0/OXWxCFqxEyzPrfqxMWP8lFtz0IvKFNvxPe3L0Tq4gD3gnuqC9Xi5uc34ZFXVuCWB+IQP0M2eK6gxBdx99+ItctD7C3tvtYmVBdzGxPBT4O0O+Kg5IqUqaEIpz5soC7RCafGj297FK/elIIobgoCe7288NQ/8fCBDJwbTWu8tQDnG+2DA+Aftwq/XzoPKVL+eYIN3bV4aWkibJf1zd2VyCgaEF36Mpyt67B3j0o1adh2y0242Ze3L/ZGvQnr8Yfl/H1VI7N0NHe7J3xTfGWZ4Va94K/kce0ry/ANXBXE1X0S2ZvV6nu4DjSmtSFjCj1XJi3YybdHnj8+4C4BrlddYW/wq+fuCisQS53ums4y1eVj17PneV1lYsQ/utY+CMatFUKcVpBx8Xkxrz7g5gW44554DJoCyN681n7zYS9I5Lw76htqcPzFIzhrX/prtCvL8Aza1zhyVR7MfejpNnIt5QHvi2XuRslnX2PPoEWunVeRcZfL72nM5dTFijzjWOavf6NbCYbP1b0GRaoVeH3dIkTyjx2mfBkMBvSZBRBKZLy73zPMepRkfYifXagdNMWKnbrx0u0rHHefsDDDaOhGb7/rfRVnvo9HcygIx4pahCOSIShg8JU4gUgCuY/M+nAKQTN6Wypw/NUMF7fK8Yafv4t9Sbzt+3IOQTMMVfnY/zt+CDLkKsRG2+6sZ0JbecPIy2R169Bgr7VKEByrGjCi1QzdgUx8/Fo2inlTCCyEIkht79VnQFh8R/hGyOwLi9sJvOA9xPsyG9tRtPcIvvgO3emBfHtMjYfx1NeZKNPz2vJM+ZLKfOAjlzsHV58OBWc+wZMuQpBlasvE9qNnnPfFnGEk0sH7Mve24Pzxd/FzCsFrMvUn1Fu2XBnflWX4nCdDm9CQcQWXr3aih2kTCb1F8BII4CXmhR/bYuruRktVFfK/ysQXfy9EVZOrhrYeFUcKUdpqYPZqhpdUzOxDCJFIaN+XpaXZ1YmmsnKc33kK+9+tGDShW5g4HWnLVdb1MpmD6sruHFTUW383NCNMEWG4Id7Xci1K7G1Ew/FqNNmvbViZ6ppw5evLzPvVQ+gnhoR5vyIx+565P7C0onrQ3dKIspwinN1VgCslzL7tx+xoV5bhGTQ5f/wYiytx8UwjOvqZkJeIIGFOJgIR732xFRi9AV3NzPs6l4uDf8pC9oWhVnNxnjzvLpdleszl1MWKPONW5j1BANITk8HdUH5UTB0VOMQumcZt2xjay7A/Lw/VBhGUUjnkTPkS245tcy/0nc0oLT6Dtw7txltVzjf2Hsi6r0LLClpKKVOJY/fFFVZzXw862+tReDkDfzn0f3i/buj7oxL3TKmuUUIcxtb9aNd6BZ8/noVybpMQQoZCXaOEEEI8GgUhIYQQj0Zdo4QQQjwatQgJIYR4NApCQgghHo2CkBBCiEejICSEEOLRKAgJIYR4NApCQgghHo2CkBBCiEejICSEEOLRKAgJIYR4NApCQgghHo2CkBBCiEejICSEEOLRKAgJIYR4NApCQgghHo2CkBBCiEejICSEEOLRKAgJIYR4NApCQgghHo2CkBBCiEejICSEEOLRKAgJIYR4NApCQgghHo2CkBBCiEejICSEEOLRKAgJIYR4MOD/ARRbxrILB+gPAAAAAElFTkSuQmCC;" vertex="1" parent="1">
          <mxGeometry x="60" y="1110.0000000000002" width="220" height="33.24" as="geometry" />
        </mxCell>
      </root>
    </mxGraphModel>
  </diagram>
</mxfile>
